<?xml version="1.0" encoding="utf-8"?>
<!-- Generator: Adobe Illustrator 23.1.1, SVG Export Plug-In . SVG Version: 6.00 Build 0)  -->
<svg version="1.1" xmlns="http://www.w3.org/2000/svg" xmlns:xlink="http://www.w3.org/1999/xlink" x="0px" y="0px"
	 viewBox="0 0 75 75" style="enable-background:new 0 0 75 75;" xml:space="preserve">
<style type="text/css">
	.st0{fill:#ED1C24;stroke:#000000;stroke-miterlimit:10;}
	.st1{fill:none;stroke:#FFF200;stroke-miterlimit:10;}
	.st2{fill:none;stroke:#2E3192;stroke-miterlimit:10;}
	.st3{fill:none;stroke:#009444;stroke-miterlimit:10;}
	.st4{fill:none;stroke:#00AEEF;stroke-miterlimit:10;}
	.st5{fill:none;stroke:#9E1F63;stroke-miterlimit:10;}
</style>
<g id="Layer_1">
	<path class="st0" d="M57.52,37.5c0-10.81-8.77-19.58-19.58-19.58c-6.91,0-13.4,3.91-16.82,9.56c-0.71,1.16-2.95,4.96-2.76,10.02
		c0.32,8.6,7.61,19.58,19.58,19.58C48.76,57.08,57.52,48.31,57.52,37.5z"/>
</g>
<g id="Layer_2">
	<path class="st1" d="M38.5,17.4c-0.11-8.59,0.3-14.85-1-15.96c-4.81-4.15-7.27,66.44-3.92,72.17c0.67,1.14,2.49-3.85,3.92-16.1"/>
	<path class="st2" d="M18.11,34.69c-8.75-0.46-15.94-0.81-17.16,0.46c-4.54,4.74,67.18,12.07,73.23,8.96
		c1.2-0.62-3.9-2.77-16.28-5.08"/>
	<path class="st3" d="M27.36,54.35c-4,7.8-7.1,14.02-6.43,15.66C23.4,76.1,59.38,13.63,59.02,6.83c-0.07-1.35-4.07,2.89-11.24,13.24
		"/>
	<path class="st4" d="M27.38,20.5c-5.06-7.16-8.56-12.97-10.32-13.14c-6.54-0.63,32.16,60.2,38.35,63.03
		c1.23,0.56-0.52-5.11-6.37-16.26"/>
	<path class="st5" d="M20.38,46.44c-7.47,4.58-13.34,8.2-13.63,9.94c-1.06,6.48,62.19-28.12,65.42-34.12
		c0.64-1.19-5.21,0.36-16.72,5.47"/>
	<circle cx="18.35" cy="14.06" r="1.7"/>
	<circle cx="32.55" cy="33.68" r="1.7"/>
	<circle cx="48.28" cy="30.73" r="1.7"/>
	<circle cx="24.02" cy="41.23" r="1.7"/>
	<circle cx="15.83" cy="54.35" r="1.7"/>
</g>
</svg>
